# xmcd
#
# Track frame offsets: 
#        150
#        14331
#        26866
#        39006
#        52997
#        65349
#        78560
#        93036
#        107331
#        122085
#        136004
#        148967
#        160973
#        173704
#        185456
#        197742
#        211519
#        226888
#        236373
#
# Disc length: 3317 seconds
#
# Revision: 0
# Processed by: cddbd v1.4PL0 Copyright (c) Steve Scherf et al.
# Submitted via: ExactAudioCopy v0.90b3
#
DISCID=eb0cf313
DTITLE=Global Roots - GLobal Roots: Chess Blues [CD1]
DYEAR=2003
DGENRE=Blues
TTITLE0=Koko Taylor - I got What It Takes
TTITLE1=Bo Diddley - I'm A Man
TTITLE2=Muddy Waters- Long Distance Call
TTITLE3=John Lee Hooker - Louise
TTITLE4=Howlin' Wolf - How Many More Years
TTITLE5=Little Walter - Mean Old World
TTITLE6=Otis Rush - So Many Roads, So Many Trains
TTITLE7=Willie Mabo - I Don't Know
TTITLE8=Eddie Boyd - Third Degree
TTITLE9=Chuck Berry - Wee Wee Hours
TTITLE10=Willie Dixon - Crazy For My Baby
TTITLE11=Buddie Guy - Ten Years Ago
TTITLE12=Eddie Bo - You're The Only One
TTITLE13=Jimmy McCracklin - Later On
TTITLE14=Supar Pie Desanto - Use What You Got
TTITLE15=Lowell Fulson - Check Yourself
TTITLE16=Little Milton - Blind Man
TTITLE17=Billy Emerson - Believe Me
TTITLE18=McKinley Mitchell - This Can't Be The End
EXTD=
EXTT0=
EXTT1=
EXTT2=
EXTT3=
EXTT4=
EXTT5=
EXTT6=
EXTT7=
EXTT8=
EXTT9=
EXTT10=
EXTT11=
EXTT12=
EXTT13=
EXTT14=
EXTT15=
EXTT16=
EXTT17=
EXTT18=
PLAYORDER=
